<svg width="143" height="137" viewBox="0 0 143 137" fill="none" xmlns="http://www.w3.org/2000/svg">
<path d="M119.462 113.807L81.3711 76.1675L73.8285 83.8007L111.92 121.44L119.462 113.807Z" fill="#FFC700"/>
<path d="M134.012 123.92L104.377 94.637C104.212 94.474 103.946 94.4756 103.783 94.6405L92.5662 105.992C92.4032 106.157 92.4048 106.423 92.5698 106.586L122.205 135.869C122.37 136.032 122.636 136.031 122.799 135.866L134.016 124.514C134.179 124.349 134.177 124.083 134.012 123.92Z" fill="#50CD89"/>
<path d="M47.6096 95.0973C73.8153 95.0973 95.0591 73.8534 95.0591 47.6477C95.0591 21.4421 73.8153 0.198242 47.6096 0.198242C21.404 0.198242 0.160156 21.4421 0.160156 47.6477C0.160156 73.8534 21.404 95.0973 47.6096 95.0973Z" fill="#50CD89"/>
<path d="M47.6096 87.3553C69.5393 87.3553 87.3168 69.5778 87.3168 47.6481C87.3168 25.7184 69.5393 7.94092 47.6096 7.94092C25.6799 7.94092 7.90234 25.7184 7.90234 47.6481C7.90234 69.5778 25.6799 87.3553 47.6096 87.3553Z" fill="#E8FFF3"/>
<path d="M127.829 4.75308C116.699 1.14543 104.671 7.24704 101.049 18.4228C97.4414 29.5528 103.543 41.5809 114.719 45.2031C125.895 48.8254 137.891 42.664 141.5 31.5334C145.108 20.4028 138.96 8.3606 127.829 4.75308ZM124.471 15.1145C125.717 15.5183 126.815 16.283 127.625 17.3117C128.436 18.3403 128.923 19.5865 129.024 20.8922C129.125 22.1979 128.837 23.5043 128.194 24.6456C127.552 25.787 126.585 26.7119 125.417 27.3031C124.248 27.8943 122.93 28.1251 121.63 27.9662C120.33 27.8074 119.107 27.266 118.115 26.4108C117.123 25.5556 116.408 24.4251 116.059 23.1627C115.711 21.9003 115.745 20.5628 116.158 19.3199C117.273 15.8813 121.032 13.9999 124.471 15.1145ZM116.068 41.0405C112.37 39.8481 109.202 37.4072 107.106 34.1359C111.028 31.9072 115.129 31.2864 118.84 32.489C122.55 33.6916 125.567 36.5693 127.376 40.7058C123.76 42.1257 119.762 42.244 116.068 41.0405Z" fill="#FFC700"/>
<path d="M35.1881 106.176C33.2549 107.163 31.6577 108.701 30.5985 110.595C29.5393 112.49 29.0657 114.656 29.2376 116.82C29.4095 118.983 30.2191 121.048 31.5641 122.751C32.9091 124.455 34.729 125.721 36.7938 126.39C38.8585 127.06 41.0754 127.102 43.164 126.511C45.2526 125.92 47.1191 124.723 48.5276 123.072C49.936 121.42 50.8231 119.388 51.0766 117.233C51.3302 115.077 50.9388 112.895 49.952 110.961C48.6264 108.371 46.3275 106.413 43.5596 105.516C40.7918 104.619 37.7811 104.856 35.1881 106.176ZM37.7443 111.184C38.3464 110.876 39.0262 110.755 39.6976 110.834C40.3689 110.914 41.0015 111.191 41.5151 111.631C42.0287 112.07 42.4001 112.652 42.5823 113.303C42.7645 113.954 42.7492 114.645 42.5384 115.287C42.3276 115.93 41.9308 116.495 41.3983 116.911C40.8658 117.328 40.2215 117.577 39.5473 117.627C38.8731 117.676 38.1993 117.525 37.6114 117.191C37.0235 116.857 36.5479 116.357 36.245 115.752C35.8435 114.947 35.7758 114.015 36.0565 113.16C36.3371 112.305 36.9435 111.594 37.7443 111.183V111.184ZM44.1399 123.714C42.355 124.628 40.3078 124.894 38.3488 124.465C38.9669 122.22 40.2372 120.496 42.0308 119.581C43.8243 118.665 45.9754 118.615 48.1455 119.464C47.3436 121.302 45.9275 122.804 44.1399 123.713V123.714Z" fill="#50CD89"/>
</svg>
