<svg width="256" height="256" viewBox="0 0 256 256" fill="none" xmlns="http://www.w3.org/2000/svg">
<path d="M228.096 234.24H32.0003C31.7187 234.24 31.4883 234.009 31.4883 233.728C31.4883 233.446 31.7187 233.216 32.0003 233.216H228.096C228.378 233.216 228.608 233.446 228.608 233.728C228.608 234.009 228.378 234.24 228.096 234.24Z" fill="black"/>
<path d="M40.9602 242.432H11.7762C11.4946 242.432 11.2642 242.202 11.2642 241.92C11.2642 241.639 11.4946 241.408 11.7762 241.408H40.9602C41.2418 241.408 41.4722 241.639 41.4722 241.92C41.4722 242.202 41.2418 242.432 40.9602 242.432Z" fill="black"/>
<path d="M246.272 242.432H209.152C208.871 242.432 208.64 242.202 208.64 241.92C208.64 241.639 208.871 241.408 209.152 241.408H246.272C246.554 241.408 246.784 241.639 246.784 241.92C246.784 242.202 246.554 242.432 246.272 242.432Z" fill="black"/>
<path d="M194.56 233.984H69.12C63.3088 203.546 62.3872 174.746 69.12 148.48H194.56C202.624 173.056 202.624 201.549 194.56 233.984Z" fill="#D9CFFF"/>
<path d="M194.867 234.368H68.813L68.7618 234.061C62.4642 201.011 62.4642 173.004 68.7618 148.377L68.8386 148.096H194.867L194.944 148.352C198.963 160.614 201.011 174.054 201.011 188.288C201.011 202.521 198.963 217.907 194.944 234.086L194.867 234.368ZM69.4274 233.6H194.253C202.163 201.625 202.163 173.133 194.279 148.864H69.4274C63.2322 173.209 63.2322 200.934 69.4274 233.6Z" fill="#1D1E1B"/>
<path d="M36.2241 127.872C36.2241 127.872 60.8257 134.784 69.1713 147.584L84.9921 141.952C84.9921 141.952 82.2017 129.92 60.5953 118.4L36.2241 127.872Z" fill="#D9CFFF"/>
<path d="M69.0176 148.045L68.864 147.789C60.6976 135.245 36.3776 128.307 36.1472 128.23L35.0464 127.923L60.672 117.965L60.8256 118.042C72.0384 124.032 78.1312 130.15 81.2544 134.246C84.6592 138.701 85.376 141.722 85.4272 141.85L85.504 142.182L69.0176 148.045ZM37.4016 127.821C42.2144 129.331 61.8752 136.038 69.3248 147.123L84.5312 141.722C83.8912 139.725 79.6672 129.05 60.5952 118.835L37.4016 127.821Z" fill="#1D1E1B"/>
<path d="M227.584 127.872C227.584 127.872 202.982 134.784 194.637 147.584L178.816 141.952C178.816 141.952 181.606 129.92 203.213 118.4L227.584 127.872Z" fill="#D9CFFF"/>
<path d="M194.791 148.045L178.355 142.208L178.432 141.875C178.458 141.747 179.175 138.726 182.605 134.272C185.728 130.176 191.795 124.057 203.034 118.067L203.187 117.99L228.813 127.949L227.712 128.256C227.456 128.333 203.162 135.27 194.995 147.814L194.791 148.045ZM179.277 141.721L194.483 147.123C201.933 136.038 221.594 129.331 226.407 127.821L203.239 118.809C184.167 129.024 179.917 139.725 179.277 141.721Z" fill="#1D1E1B"/>
<path d="M69.248 147.584L85.12 142.464H178.816L194.688 147.584H69.248Z" fill="#59298F"/>
<path d="M117.12 197.888C118.605 197.888 119.808 196.684 119.808 195.2C119.808 193.715 118.605 192.512 117.12 192.512C115.636 192.512 114.432 193.715 114.432 195.2C114.432 196.684 115.636 197.888 117.12 197.888Z" fill="#59298F"/>
<path d="M131.2 197.888C132.685 197.888 133.888 196.684 133.888 195.2C133.888 193.715 132.685 192.512 131.2 192.512C129.716 192.512 128.512 193.715 128.512 195.2C128.512 196.684 129.716 197.888 131.2 197.888Z" fill="#59298F"/>
<path d="M145.024 197.888C146.508 197.888 147.712 196.684 147.712 195.2C147.712 193.715 146.508 192.512 145.024 192.512C143.539 192.512 142.336 193.715 142.336 195.2C142.336 196.684 143.539 197.888 145.024 197.888Z" fill="#59298F"/>
<path d="M187.264 227.841C186.496 227.841 185.856 227.201 185.856 226.433C185.856 226.279 185.882 226.125 185.933 225.997C193.382 203.649 192.998 185.729 191.36 174.644C189.594 162.714 186.061 156.007 186.035 155.93C185.677 155.239 185.958 154.394 186.65 154.036C187.315 153.703 188.134 153.959 188.518 154.599C188.672 154.881 192.307 161.818 194.15 174.234C195.84 185.626 196.25 204.007 188.621 226.893C188.416 227.457 187.878 227.841 187.264 227.841Z" fill="white"/>
<path d="M74.6238 230.4C74.1118 230.4 73.6254 230.118 73.395 229.683C66.1246 216.422 67.763 182.502 67.8398 181.069C67.891 180.301 68.531 179.686 69.3246 179.737C70.0926 179.789 70.707 180.429 70.6558 181.222C70.6302 181.555 68.9662 215.782 75.8526 228.352C76.2366 229.043 75.9806 229.888 75.2894 230.272C75.1102 230.349 74.8542 230.4 74.6238 230.4Z" fill="white"/>
<path d="M117.914 64.6657C117.914 64.6657 109.645 68.7873 107.956 62.2081C106.266 55.6289 102.81 41.4721 92.5444 43.1617C82.2788 44.8513 81.1268 46.7201 77.5172 40.3457C73.9076 33.9713 47.8724 34.7649 52.6852 54.7329C60.57 87.4753 119.296 84.3009 119.296 84.3009L120.679 76.7233L117.914 64.6657Z" fill="#6C32AD"/>
<path d="M115.226 84.7622C109.747 84.7622 99.4816 84.4038 88.8576 82.151C79.7184 80.231 72.0896 77.3126 66.2016 73.4726C58.8032 68.6598 54.144 62.3878 52.3008 54.8102C51.2512 50.4326 51.584 46.6694 53.2736 43.623C54.7072 41.063 57.1648 39.0406 60.3392 37.7862C66.8928 35.2006 75.7248 36.4038 77.824 40.1414C80.6144 45.0822 81.664 44.8774 87.552 43.6998C88.9344 43.4182 90.5216 43.111 92.4416 42.7782C102.938 41.063 106.522 55.0918 108.237 61.8502L108.314 62.1062C108.698 63.591 109.466 64.615 110.592 65.127C113.408 66.4326 117.683 64.3334 117.709 64.3078L118.144 64.0774L121.037 76.6726L121.011 76.7494L119.578 84.6342L119.27 84.6598C119.27 84.6854 117.76 84.7622 115.226 84.7622ZM67.9168 37.1718C65.4336 37.1718 62.976 37.607 60.6464 38.503C56.7296 40.039 50.56 44.1862 53.0688 54.631C57.088 71.3478 74.8288 78.4134 89.0112 81.4086C103.194 84.4038 116.787 84.0198 118.963 83.943L120.269 76.7494L117.632 65.2294C116.403 65.767 112.922 67.047 110.285 65.8438C108.928 65.2294 108.006 64.0262 107.571 62.311L107.494 62.055C105.83 55.527 102.374 41.9334 92.5696 43.5462C90.6496 43.8534 89.088 44.1862 87.7056 44.4678C81.8176 45.6454 80.2304 45.9782 77.1584 40.551C76.0576 38.5286 72.2688 37.1718 67.9168 37.1718Z" fill="black"/>
<path d="M87.1425 148.225C87.1425 148.225 80.8961 104.577 100.864 91.3926C106.957 87.3478 116.992 98.663 128.512 99.0726C141.645 99.5334 154.394 87.8086 161.536 91.1366C189.824 104.346 174.746 148.225 174.746 148.225H87.1425Z" fill="#FFAD00"/>
<path d="M175.104 148.737H86.7076L86.6564 148.301C85.6836 140.493 85.4788 132.583 86.0164 124.724C86.554 117.377 87.834 110.977 89.8308 105.677C92.3396 98.9958 95.9492 94.055 100.608 90.983C104.116 88.679 108.647 90.9574 113.869 93.6198C118.298 95.8726 123.29 98.407 128.564 98.5862C134.938 98.8166 141.287 96.0774 146.893 93.671C152.832 91.111 157.952 88.9094 161.792 90.7014C168.372 93.7734 173.159 98.7398 176.052 105.447C178.356 110.797 179.456 117.249 179.303 124.673C179.072 137.217 175.309 148.301 175.284 148.429L175.104 148.737ZM87.6036 147.713H174.388C175.028 145.741 178.048 135.757 178.253 124.596C178.56 108.084 172.852 96.9734 161.332 91.5974C157.927 90.0102 152.986 92.135 147.277 94.5926C141.568 97.0502 135.092 99.815 128.512 99.5846C123.008 99.3798 117.914 96.7942 113.408 94.5158C108.468 92.007 104.192 89.831 101.172 91.8278C91.034 98.535 87.8852 113.46 87.066 124.775C86.5028 132.429 86.7076 140.109 87.6036 147.713Z" fill="#1D1D1B"/>
<path d="M122.24 97.8689C122.24 97.8689 116.864 99.1745 120.704 103.27C124.544 107.366 129.92 103.782 129.92 103.782C129.92 103.782 135.808 107.11 139.904 103.782C144 100.454 138.88 97.3057 138.88 97.3057C138.88 97.3057 134.528 100.659 122.24 97.8689Z" fill="white"/>
<path d="M135.475 105.677C132.915 105.677 130.611 104.602 129.92 104.244C128.871 104.858 124.007 107.367 120.423 103.552C119.168 102.221 118.707 101.018 119.04 99.9429C119.578 98.1509 122.061 97.5365 122.163 97.5109L122.266 97.4853L122.343 97.5109C134.323 100.224 138.624 97.0757 138.675 97.0501L138.88 96.8965L139.111 97.0245C139.213 97.1013 141.747 98.6629 141.901 100.89C141.978 102.042 141.389 103.143 140.186 104.116C138.829 105.165 137.165 105.728 135.475 105.677ZM129.895 103.348L130.099 103.476C130.151 103.501 135.808 106.624 139.648 103.501C140.672 102.682 141.159 101.812 141.082 100.916C140.979 99.4309 139.418 98.2021 138.855 97.7925C137.779 98.4325 133.069 100.711 122.215 98.2789C121.805 98.4069 120.09 98.9701 119.731 100.173C119.501 100.967 119.911 101.94 120.935 103.04C124.493 106.855 129.459 103.629 129.664 103.501L129.895 103.348Z" fill="#1D1D1B"/>
<path d="M125.44 88.5763C125.44 88.5763 126.464 96.5123 123.648 100.096C123.648 100.096 129.28 104.448 136.192 100.096C136.192 100.096 131.84 91.1363 133.12 88.5763C134.4 86.0163 125.44 88.5763 125.44 88.5763Z" fill="#FFCDB2"/>
<path d="M129.894 102.4C127.59 102.4 125.312 101.709 123.418 100.403L123.11 100.173L123.341 99.8659C126.029 96.461 125.056 88.7042 125.056 88.6274L125.005 88.2946L125.312 88.1922C126.95 87.7314 132.378 86.2978 133.402 87.5522C133.581 87.757 133.734 88.141 133.427 88.7298C132.454 90.701 135.322 97.4594 136.499 99.917L136.653 100.224L136.371 100.403C134.042 101.914 131.814 102.4 129.894 102.4ZM124.186 99.9939C125.414 100.787 130.048 103.322 135.68 99.9426C134.835 98.1506 131.533 90.8546 132.762 88.397C132.813 88.2946 132.89 88.1154 132.813 88.0386C132.326 87.4498 128.896 88.013 125.824 88.8322C126.029 90.3682 126.49 96.6146 124.186 99.9939Z" fill="#1D1D1B"/>
<path d="M115.968 44.0578C115.738 44.0578 115.533 43.9042 115.482 43.6738C113.766 36.9666 120.422 33.8434 120.499 33.8178C120.755 33.6898 121.062 33.8178 121.165 34.0738C121.267 34.3298 121.165 34.637 120.909 34.7394C120.653 34.8418 114.97 37.5298 116.454 43.3922C116.531 43.6738 116.352 43.9554 116.096 44.0066C116.045 44.0578 116.019 44.0578 115.968 44.0578Z" fill="#1D1D1B"/>
<path d="M128.102 56.4734C133.701 56.4734 138.24 51.9347 138.24 46.3358C138.24 40.737 133.701 36.1982 128.102 36.1982C122.504 36.1982 117.965 40.737 117.965 46.3358C117.965 51.9347 122.504 56.4734 128.102 56.4734Z" fill="#6C32AD"/>
<path d="M128.103 56.8321H127.949C122.138 56.7553 117.504 51.9681 117.607 46.1569C117.658 43.3665 118.784 40.7041 120.781 38.7841C124.954 34.7393 131.61 34.8417 135.655 39.0145C139.699 43.1873 139.597 49.8433 135.424 53.8881C133.453 55.7569 130.842 56.8321 128.103 56.8321ZM128.103 36.5825C122.727 36.5569 118.323 40.8833 118.298 46.2593C118.272 51.6353 122.599 56.0385 127.975 56.0641H128.128C133.453 56.0641 137.779 51.7889 137.856 46.4641C137.933 41.0881 133.632 36.6593 128.256 36.5825H128.103Z" fill="#1D1E1B"/>
<path d="M138.163 50.6115C134.118 43.1875 122.701 44.6211 119.782 47.8211C112.538 55.7827 105.549 51.8659 104.166 60.4931C103.475 64.8195 107.29 66.5347 105.446 74.4451C104.474 78.5155 111.334 84.8899 117.606 84.9923C123.878 85.0947 145.229 85.6323 147.021 81.0499C148.813 76.4675 155.853 68.8643 150.246 60.0323C144.538 51.0723 139.904 53.8371 138.163 50.6115Z" fill="#6C32AD"/>
<path d="M123.802 85.4016C122.01 85.4016 120.192 85.376 118.452 85.3504H117.581C113.178 85.2736 108.903 82.3296 106.778 79.5904C105.319 77.7216 104.704 75.8528 105.063 74.3424C106.138 69.76 105.293 67.328 104.525 65.2032C103.988 63.6928 103.501 62.2848 103.783 60.4416C104.576 55.4496 107.213 54.4512 110.567 53.1968C113.255 52.1984 116.301 51.0464 119.476 47.5648C121.268 45.5936 125.696 44.4672 129.716 44.9536C133.709 45.44 136.807 47.3856 138.471 50.432C139.06 51.5328 140.032 51.84 141.389 52.3008C143.719 53.0688 146.919 54.144 150.528 59.8016C155.085 66.9696 151.578 73.2928 148.992 77.9264C148.378 78.976 147.84 80.0512 147.354 81.152C145.997 84.6848 134.912 85.4016 123.802 85.4016ZM127.796 45.5936C124.34 45.5936 121.268 46.7456 120.064 48.0768C116.762 51.6864 113.485 52.9152 110.848 53.9136C107.623 55.1168 105.268 55.9872 104.551 60.544C104.295 62.208 104.73 63.488 105.242 64.9472C106.036 67.1744 106.932 69.7344 105.805 74.5216C105.498 75.8016 106.061 77.44 107.367 79.1296C109.389 81.7152 113.434 84.5312 117.581 84.5824H118.452C125.031 84.6848 145.024 85.0176 146.637 80.8704C147.124 79.7184 147.687 78.6176 148.327 77.5424C150.81 73.088 154.215 66.9696 149.888 60.2112C146.432 54.784 143.386 53.7856 141.159 53.0432C139.751 52.5824 138.548 52.1728 137.805 50.816C136.269 47.9744 133.376 46.1824 129.639 45.7216C129.05 45.6448 128.436 45.5936 127.796 45.5936Z" fill="#1D1E1B"/>
<path d="M131.456 67.4564C126.285 68.25 119.527 65.6388 118.247 67.3796C116.967 69.1204 117.735 71.6292 120.448 72.3972C123.162 73.1652 125.927 73.2164 131.584 73.0884C137.242 72.9604 142.772 72.4228 142.285 69.3764C141.799 66.33 139.085 66.2788 131.456 67.4564Z" fill="#FFB49F"/>
<path d="M128.691 52.5566C126.566 60.5438 118.426 64.1022 114.022 64.435C113.024 66.867 113.459 70.1694 113.434 73.0366C113.28 83.5838 118.912 91.315 129.05 90.7518C138.931 90.2142 144.205 84.6334 144.282 73.011C144.282 70.2718 144.435 67.5582 143.59 65.1774C135.194 65.0494 128.691 52.5566 128.691 52.5566Z" fill="#FFCDB2"/>
<path d="M128.077 91.187C124.109 91.187 120.679 89.8814 118.093 87.3982C114.739 84.1726 112.947 79.0782 113.024 73.0366C113.024 72.3198 113.024 71.5774 112.999 70.835C112.947 68.5566 112.871 66.1758 113.664 64.2814L113.767 64.051L113.997 64.0254C118.759 63.667 126.362 59.827 128.333 52.4286L128.589 51.4814L129.05 52.3518C129.127 52.4798 135.552 64.6398 143.616 64.7934H143.872L143.949 65.0494C144.717 67.1998 144.691 69.6574 144.666 72.0382C144.666 72.371 144.666 72.6782 144.666 73.011C144.64 78.8222 143.283 83.2766 140.647 86.2974C138.061 89.2414 134.17 90.8542 129.075 91.1358C128.743 91.1614 128.41 91.187 128.077 91.187ZM114.304 64.7934C113.664 66.5086 113.741 68.6846 113.792 70.8094C113.818 71.5518 113.843 72.3198 113.818 73.0366C113.741 78.8734 115.456 83.763 118.631 86.835C121.267 89.3694 124.851 90.5982 129.024 90.3678C138.957 89.8302 143.821 84.1726 143.872 73.011C143.872 72.6782 143.872 72.3454 143.872 72.0126C143.898 69.7086 143.923 67.507 143.283 65.5358C136.064 65.1774 130.381 56.2942 128.768 53.5038C126.336 60.979 118.81 64.3582 114.304 64.7934Z" fill="#1D1D1B"/>
<path d="M130.407 68.0708C124.237 69.0948 116.147 66.0228 114.637 68.1476C113.127 70.2724 114.048 73.242 117.325 74.1124C120.602 74.9828 123.879 75.034 130.611 74.8292C137.344 74.6244 143.923 73.9076 143.335 70.2724C142.746 66.6372 139.469 66.5604 130.407 68.0708Z" fill="#FFB49F"/>
<path d="M128.461 77.4403C128.256 77.4403 128.077 77.2611 128.077 77.0563L128.205 68.7619C128.205 68.5571 128.384 68.3779 128.589 68.3779C128.794 68.3779 128.973 68.5571 128.973 68.7619L128.845 77.0563C128.82 77.2867 128.666 77.4403 128.461 77.4403Z" fill="black"/>
<path d="M121.165 43.546C121.063 43.546 120.986 43.5204 120.909 43.4948C120.602 43.3412 120.448 42.9572 120.602 42.65C120.679 42.4708 122.778 38.042 128.538 37.7604C128.896 37.7348 129.203 38.0164 129.203 38.3748C129.203 38.7332 128.947 39.0404 128.589 39.0404C123.648 39.2964 121.831 43.034 121.754 43.2132C121.651 43.3924 121.421 43.546 121.165 43.546Z" fill="white"/>
<path d="M119.373 67.4309C118.477 67.4309 117.607 67.2261 116.813 66.8165C116.634 66.7141 116.557 66.4837 116.685 66.2789C116.788 66.0996 116.992 66.0484 117.172 66.1252C120.448 67.8661 124.263 64.7684 124.314 64.7428C124.468 64.5892 124.724 64.6148 124.852 64.7684C125.005 64.922 124.98 65.178 124.826 65.306L124.8 65.3316C124.647 65.434 122.189 67.4309 119.373 67.4309Z" fill="black"/>
<path d="M135.527 66.4326C134.17 66.4326 131.943 65.9974 130.151 63.5398C130.023 63.3606 130.074 63.1302 130.227 63.0022C130.407 62.8742 130.637 62.9254 130.765 63.079C133.197 66.4326 136.397 65.5878 136.551 65.5366C136.755 65.4854 136.96 65.5878 137.011 65.7926C137.063 65.9974 136.96 66.2022 136.755 66.279C136.371 66.407 135.936 66.4582 135.527 66.4326Z" fill="black"/>
<path d="M74.3682 139.392C67.6098 133.709 58.3682 123.11 56.781 116.736C55.1938 110.362 59.2898 108.134 59.2898 108.134L57.1394 103.654L70.8098 93.0049L72.8834 95.6417C72.8834 95.6417 79.3602 93.6705 82.509 98.8417C85.6578 104.013 89.0882 111.053 91.341 113.792C99.7122 124.006 99.9682 136.806 94.8482 144.23C89.7282 151.654 77.8498 142.31 74.3682 139.392Z" fill="#FFAD00"/>
<path d="M89.4724 147.431C84.1732 147.431 77.6708 142.644 74.138 139.674C68.0196 134.503 58.138 123.674 56.4228 116.839C55.0404 111.309 57.8564 108.698 58.8036 108.007L56.8068 103.834C56.73 103.68 56.7812 103.476 56.9092 103.373L70.5796 92.7236C70.7588 92.5956 70.9892 92.6212 71.1172 92.8004L73.0372 95.2324C74.3172 94.9252 79.9236 93.9012 82.842 98.6884C84.0708 100.711 85.3252 102.989 86.554 105.191C88.474 108.672 90.2916 111.949 91.6484 113.613C100.506 124.416 100.148 137.319 95.1812 144.512C94.1316 146.1 92.442 147.175 90.5476 147.405C90.1892 147.405 89.8308 147.431 89.4724 147.431ZM57.626 103.757L59.6484 107.956C59.7508 108.135 59.674 108.365 59.4948 108.468C59.3412 108.544 55.6804 110.669 57.1652 116.66C58.778 123.06 68.3524 133.812 74.65 139.111C78.106 142.029 84.4292 146.688 89.4724 146.688C89.8052 146.688 90.138 146.663 90.4708 146.612C92.1348 146.407 93.6452 145.46 94.5668 144.052C99.354 137.114 99.6868 124.596 91.0596 114.074C89.6516 112.359 87.8084 109.056 85.8884 105.524C84.6596 103.322 83.4308 101.044 82.202 99.0468C79.2324 94.1828 73.2676 95.9236 73.0116 96.0004C72.858 96.0516 72.7044 96.0004 72.602 95.8724L70.7588 93.5428L57.626 103.757Z" fill="#1D1D1B"/>
<path d="M59.7252 108.237C59.7252 108.237 70.554 106.112 72.6788 95.9749L70.7076 93.3125L57.626 103.732L59.7252 108.237Z" fill="#E89D00"/>
<path d="M91.6482 127.36C92.4541 127.36 93.1074 126.706 93.1074 125.901C93.1074 125.095 92.4541 124.441 91.6482 124.441C90.8423 124.441 90.189 125.095 90.189 125.901C90.189 126.706 90.8423 127.36 91.6482 127.36Z" fill="#FFC140"/>
<path d="M104.192 106.112C104.998 106.112 105.651 105.458 105.651 104.653C105.651 103.847 104.998 103.193 104.192 103.193C103.386 103.193 102.733 103.847 102.733 104.653C102.733 105.458 103.386 106.112 104.192 106.112Z" fill="#FFC140"/>
<path d="M131.328 120.449C132.134 120.449 132.788 119.795 132.788 118.989C132.788 118.184 132.134 117.53 131.328 117.53C130.522 117.53 129.869 118.184 129.869 118.989C129.869 119.795 130.522 120.449 131.328 120.449Z" fill="#FFC140"/>
<path d="M151.808 106.112C152.614 106.112 153.268 105.458 153.268 104.653C153.268 103.847 152.614 103.193 151.808 103.193C151.002 103.193 150.349 103.847 150.349 104.653C150.349 105.458 151.002 106.112 151.808 106.112Z" fill="#FFC140"/>
<path d="M151.808 138.624C152.614 138.624 153.268 137.971 153.268 137.165C153.268 136.359 152.614 135.706 151.808 135.706C151.002 135.706 150.349 136.359 150.349 137.165C150.349 137.971 151.002 138.624 151.808 138.624Z" fill="#FFC140"/>
<path d="M118.016 146.56C118.822 146.56 119.476 145.907 119.476 145.101C119.476 144.295 118.822 143.642 118.016 143.642C117.21 143.642 116.557 144.295 116.557 145.101C116.557 145.907 117.21 146.56 118.016 146.56Z" fill="#FFC140"/>
<path d="M115.456 125.312C116.262 125.312 116.915 124.659 116.915 123.853C116.915 123.047 116.262 122.394 115.456 122.394C114.65 122.394 113.997 123.047 113.997 123.853C113.997 124.659 114.65 125.312 115.456 125.312Z" fill="#FFC140"/>
<path d="M149.76 124.8C150.566 124.8 151.219 124.147 151.219 123.341C151.219 122.535 150.566 121.882 149.76 121.882C148.954 121.882 148.301 122.535 148.301 123.341C148.301 124.147 148.954 124.8 149.76 124.8Z" fill="#FFC140"/>
<path d="M76.8 131.201C77.6059 131.201 78.2592 130.547 78.2592 129.741C78.2592 128.936 77.6059 128.282 76.8 128.282C75.9941 128.282 75.3408 128.936 75.3408 129.741C75.3408 130.547 75.9941 131.201 76.8 131.201Z" fill="#FFC140"/>
<path d="M77.7732 110.336C78.5791 110.336 79.2324 109.683 79.2324 108.877C79.2324 108.071 78.5791 107.418 77.7732 107.418C76.9673 107.418 76.314 108.071 76.314 108.877C76.314 109.683 76.9673 110.336 77.7732 110.336Z" fill="#FFC140"/>
<path d="M35.6098 87.8083C35.6098 87.8083 35.0466 102.17 56.5762 101.837C56.5762 101.837 68.2242 101.146 71.5522 94.4387L71.0658 93.0819C71.0658 93.0819 76.9026 85.7603 73.7026 81.1523C73.7026 81.1523 67.6354 81.2547 63.7186 89.6771C63.7186 89.6771 57.037 81.4595 47.1042 85.0947C47.1042 85.0947 42.189 84.1475 41.3698 86.8867C41.3698 86.9123 38.605 85.1971 35.6098 87.8083Z" fill="#FFCDB2"/>
<path d="M37.5042 86.656C38.7586 86.1696 40.1922 86.272 41.3698 86.912C41.6258 86.0672 42.2658 85.5808 43.0338 85.2992C44.749 84.6592 47.1042 85.12 47.1042 85.12C57.037 81.4848 63.7186 89.7024 63.7186 89.7024C66.1506 84.4544 69.4018 82.432 71.5266 81.664C72.2178 81.3824 72.9346 81.2288 73.677 81.1776C76.877 85.7856 71.0402 93.1072 71.0402 93.1072L71.5266 94.464C70.093 97.3824 67.0722 99.1488 64.1282 100.224C61.6962 101.094 59.1362 101.658 56.5506 101.862C35.021 102.221 35.5842 87.8336 35.5842 87.8336C36.173 87.3216 36.813 86.9376 37.5042 86.656ZM37.2482 85.9392C36.4546 86.2464 35.7378 86.6816 35.0978 87.2448C34.9442 87.3728 34.8418 87.5776 34.8418 87.7824C34.893 91.2384 36.2754 94.5664 38.7074 97.024C42.4706 100.864 48.461 102.733 56.5506 102.605H56.5762C59.2386 102.4 61.8754 101.837 64.3842 100.915C68.2498 99.5072 70.8866 97.4336 72.2178 94.7712C72.3202 94.592 72.3202 94.3616 72.2434 94.1568L71.9106 93.2096C73.0882 91.6224 77.4146 85.1712 74.317 80.6912C74.1634 80.4864 73.933 80.3584 73.677 80.3584C72.8578 80.4096 72.0386 80.5888 71.2706 80.896C69.0434 81.7152 65.9458 83.6608 63.5138 88.32C62.3106 87.1424 60.9794 86.144 59.5202 85.3248C55.7058 83.1744 51.149 82.7904 47.053 84.2752C46.3874 84.1728 44.3906 83.9424 42.7778 84.5312C42.061 84.7616 41.4466 85.248 41.0114 85.8624C39.7826 85.4784 38.4514 85.504 37.2482 85.9392Z" fill="black"/>
<path d="M64.0771 94.8479C63.8467 94.8991 63.6419 94.7967 63.5651 94.5919C63.5395 94.5407 63.2323 93.5935 61.9267 93.0047C60.4931 92.3647 57.7027 92.1343 52.4291 94.5407C52.3011 94.5919 52.1475 94.5919 52.0195 94.4895C51.9683 94.4383 45.9779 89.6767 41.1907 87.2447C41.0115 87.1423 40.9347 86.9119 41.0371 86.7327C41.1395 86.5535 41.3443 86.4767 41.5491 86.5791C45.9267 88.8063 51.2515 92.9279 52.3267 93.7471C56.6787 91.8015 60.0323 91.3151 62.2851 92.3391C63.8979 93.0815 64.3075 94.3359 64.3331 94.3871C64.3843 94.5663 64.2819 94.7967 64.0771 94.8479Z" fill="black"/>
<path d="M56.8066 90.8031C56.653 90.8543 56.4994 90.803 56.397 90.7006C56.3714 90.675 53.2994 87.3214 46.8994 85.2222C46.6946 85.1454 46.5922 84.9406 46.6434 84.7358C46.6946 84.531 46.925 84.4286 47.1298 84.4798C53.7346 86.6558 56.8322 90.035 56.9602 90.1886C57.1138 90.3422 57.0882 90.5982 56.9346 90.7262C56.909 90.7774 56.8578 90.8031 56.8066 90.8031Z" fill="black"/>
<path d="M55.5267 100.25L55.4499 100.275C47.2835 101.709 40.4995 95.7698 40.2179 95.5138C40.0131 95.3346 39.9875 95.0018 40.1667 94.797C40.3459 94.5922 40.6787 94.5666 40.8835 94.7458C40.9603 94.797 47.5907 100.608 55.2451 99.2514C55.5267 99.2002 55.7827 99.3538 55.8595 99.6354C55.9107 99.917 55.7571 100.199 55.5267 100.25Z" fill="white"/>
<path d="M187.264 136.833C194.023 131.149 201.6 118.503 203.187 112.129C204.775 105.754 200.679 103.527 200.679 103.527L202.829 99.0471L189.184 88.3975L187.111 91.0343C187.111 91.0343 180.634 89.0631 177.485 94.2343C174.336 99.4055 170.906 106.445 168.653 109.185C160.256 119.399 163.2 138.087 168.32 145.511C173.44 152.935 183.783 139.751 187.264 136.833Z" fill="#FFAD00"/>
<path d="M172.211 148.148C172.058 148.148 171.904 148.148 171.751 148.122C170.266 147.994 168.986 147.175 167.987 145.741C165.248 141.748 163.328 135.117 163.021 128.436C162.637 120.5 164.531 113.588 168.32 108.98C169.677 107.316 171.495 104.039 173.415 100.557C174.643 98.3557 175.898 96.0773 177.127 94.0549C180.045 89.2677 185.651 90.3173 186.931 90.5989L188.851 88.1669C188.979 88.0133 189.21 87.9621 189.389 88.0901L203.034 98.7397C203.187 98.8421 203.213 99.0469 203.136 99.2005L201.139 103.373C202.112 104.09 204.928 106.701 203.52 112.205C201.882 118.708 194.151 131.457 187.469 137.089L187.213 136.781L187.469 137.089C186.855 137.601 186.035 138.445 185.063 139.418C181.658 142.951 176.512 148.148 172.211 148.148ZM184.243 91.0341C182.221 91.0341 179.507 91.6485 177.818 94.4389C176.589 96.4357 175.335 98.7141 174.131 100.916C172.186 104.423 170.368 107.725 168.96 109.466C165.274 113.946 163.456 120.679 163.815 128.41C164.122 134.861 166.016 141.517 168.653 145.332C169.523 146.612 170.573 147.277 171.853 147.38C171.981 147.38 172.109 147.405 172.237 147.405C176.205 147.405 181.223 142.337 184.576 138.932C185.549 137.933 186.419 137.089 187.034 136.551C193.639 130.996 201.242 118.452 202.855 112.052C204.365 106.087 200.679 103.962 200.525 103.86C200.346 103.757 200.269 103.527 200.371 103.348L202.394 99.1493L189.287 88.9349L187.443 91.2901C187.341 91.4181 187.187 91.4693 187.034 91.4181C186.087 91.1621 185.165 91.0341 184.243 91.0341Z" fill="#1D1D1B"/>
<path d="M200.244 103.629C200.244 103.629 189.415 101.504 187.29 91.3665L189.261 88.7041L202.368 99.1233L200.244 103.629Z" fill="#E89D00"/>
<path d="M168.32 122.752C169.126 122.752 169.779 122.099 169.779 121.293C169.779 120.487 169.126 119.834 168.32 119.834C167.514 119.834 166.861 120.487 166.861 121.293C166.861 122.099 167.514 122.752 168.32 122.752Z" fill="#FFC140"/>
<path d="M183.168 126.592C183.974 126.592 184.627 125.939 184.627 125.133C184.627 124.327 183.974 123.674 183.168 123.674C182.362 123.674 181.709 124.327 181.709 125.133C181.709 125.939 182.362 126.592 183.168 126.592Z" fill="#FFC140"/>
<path d="M182.196 105.728C183.001 105.728 183.655 105.075 183.655 104.269C183.655 103.463 183.001 102.81 182.196 102.81C181.39 102.81 180.736 103.463 180.736 104.269C180.736 105.075 181.39 105.728 182.196 105.728Z" fill="#FFC140"/>
<path d="M225.459 82.5093C225.459 82.5093 226.022 96.8709 204.493 96.5381C204.493 96.5381 192.845 95.8469 189.517 89.1397L190.003 87.8085C190.003 87.8085 184.166 80.4869 187.366 75.8789C187.366 75.8789 193.434 75.9813 197.35 84.4037C197.35 84.4037 204.006 76.1861 213.965 79.8213C213.965 79.8213 218.88 78.8741 219.699 81.6133C219.699 81.6133 222.464 79.8725 225.459 82.5093Z" fill="#FFCDB2"/>
<path d="M223.565 81.357C224.256 81.613 224.896 82.0226 225.46 82.509C225.46 82.509 226.023 96.8706 204.493 96.5378C201.908 96.333 199.348 95.7698 196.916 94.8994C193.972 93.8242 190.951 92.0578 189.517 89.1394L190.004 87.8082C190.004 87.8082 184.167 80.4866 187.367 75.8786C188.109 75.9298 188.826 76.0834 189.517 76.365C191.642 77.133 194.893 79.1554 197.325 84.4034C197.325 84.4034 203.981 76.1858 213.94 79.821C213.94 79.821 216.295 79.3602 218.01 80.0002C218.778 80.2818 219.418 80.7682 219.674 81.613C220.877 80.973 222.285 80.8706 223.565 81.357ZM223.821 80.6146C222.618 80.1538 221.287 80.1538 220.058 80.589C219.623 79.9746 219.008 79.4882 218.292 79.2578C216.679 78.669 214.682 78.8994 214.016 79.0018C209.895 77.517 205.338 77.8754 201.549 80.0514C200.09 80.8706 198.733 81.869 197.53 83.0466C195.098 78.3874 192 76.4418 189.773 75.6226C189.005 75.3154 188.186 75.1362 187.367 75.085C187.111 75.085 186.88 75.213 186.727 75.4178C183.604 79.8978 187.956 86.349 189.133 87.9362L188.775 88.8834C188.698 89.0882 188.724 89.293 188.8 89.4978C190.132 92.1602 192.743 94.2338 196.608 95.6418C199.117 96.5378 201.754 97.101 204.416 97.3058H204.442C212.532 97.4338 218.522 95.565 222.285 91.6994C224.717 89.2418 226.125 85.9394 226.202 82.4834C226.202 82.2786 226.1 82.0738 225.946 81.9458C225.332 81.3826 224.615 80.9218 223.821 80.6146Z" fill="black"/>
<path d="M196.992 89.5236C197.223 89.5748 197.427 89.4724 197.504 89.2676C197.53 89.2164 197.837 88.2692 199.143 87.6804C200.576 87.0404 203.367 86.81 208.64 89.2164C208.768 89.2676 208.922 89.2676 209.05 89.1652C209.101 89.114 215.091 84.3524 219.879 81.9204C220.058 81.818 220.135 81.5877 220.032 81.4085C219.93 81.2293 219.725 81.1524 219.52 81.2548C215.143 83.482 209.792 87.6036 208.743 88.4228C204.391 86.4772 201.037 85.9908 198.784 87.0148C197.171 87.7572 196.762 89.0116 196.736 89.0628C196.685 89.2676 196.787 89.4724 196.992 89.5236Z" fill="black"/>
<path d="M204.263 85.5044C204.416 85.5556 204.57 85.5044 204.672 85.402C204.698 85.3764 207.795 82.0228 214.17 79.9236C214.375 79.8724 214.503 79.6676 214.451 79.4628C214.4 79.258 214.195 79.13 213.991 79.1812C213.965 79.1812 213.939 79.1812 213.939 79.2068C207.335 81.3828 204.237 84.762 204.109 84.9156C203.955 85.0692 203.981 85.3252 204.135 85.4532C204.16 85.4532 204.211 85.4788 204.263 85.5044Z" fill="black"/>
<path d="M205.543 94.951C205.568 94.951 205.594 94.9766 205.619 94.9766C213.786 96.4102 220.57 90.471 220.851 90.215C221.056 90.0358 221.082 89.703 220.903 89.4982C220.723 89.2934 220.391 89.2678 220.186 89.447C220.109 89.4982 213.479 95.3094 205.824 93.9526C205.543 93.9014 205.287 94.0806 205.235 94.3622C205.184 94.6182 205.312 94.8742 205.543 94.951Z" fill="white"/>
<path d="M126.848 85.7602H126.797C126.592 85.7346 126.439 85.5554 126.464 85.325C126.567 84.3778 126.413 83.7122 125.952 83.3794C125.031 82.7138 123.06 83.3538 122.394 83.661C122.189 83.7378 121.984 83.661 121.882 83.4562C121.78 83.2514 121.882 83.0466 122.087 82.9442C122.215 82.893 124.954 81.6642 126.413 82.7394C127.104 83.2514 127.386 84.1218 127.232 85.3762C127.207 85.6066 127.053 85.7602 126.848 85.7602Z" fill="black"/>
<path d="M120.704 73.5998C121.27 73.5998 121.728 73.1413 121.728 72.5758C121.728 72.0102 121.27 71.5518 120.704 71.5518C120.139 71.5518 119.68 72.0102 119.68 72.5758C119.68 73.1413 120.139 73.5998 120.704 73.5998Z" fill="black"/>
<path d="M136.96 73.7287C137.526 73.7287 137.984 73.2702 137.984 72.7047C137.984 72.1391 137.526 71.6807 136.96 71.6807C136.394 71.6807 135.936 72.1391 135.936 72.7047C135.936 73.2702 136.394 73.7287 136.96 73.7287Z" fill="black"/>
<path d="M71.0914 61.5683C71.0402 61.5683 70.9634 61.5683 70.9122 61.5427C64.2818 58.9827 58.3426 54.5283 53.2226 48.3075C49.1522 43.3411 45.5682 37.2483 42.6242 30.1571C39.5778 22.8099 37.3762 15.1043 36.0962 7.24511C36.0706 6.96351 36.2498 6.70751 36.5314 6.65631C36.813 6.60511 37.069 6.80991 37.1202 7.09151C37.1458 7.19391 38.6306 17.8947 43.5714 29.7987C48.1282 40.7299 56.6274 54.9635 71.2706 60.5955C71.5266 60.6979 71.6802 60.9795 71.5778 61.2611C71.501 61.4403 71.2962 61.5939 71.0914 61.5683Z" fill="black"/>
<path d="M58.0864 60.9028H58.0352C51.6096 60.2116 45.3888 56.3204 40.0384 49.6388C37.6064 46.5668 35.5328 43.2388 33.8688 39.6804C33.7664 39.4244 33.8688 39.1172 34.1248 39.0148C34.3808 38.9124 34.688 39.0148 34.7904 39.2708C34.8672 39.4756 43.2384 58.2916 58.1376 59.8788C58.4192 59.9044 58.6496 60.1348 58.624 60.4164C58.5984 60.698 58.368 60.9284 58.0864 60.9028Z" fill="black"/>
<path d="M9.47196 87.0399C9.19036 87.0399 8.95996 86.8095 8.95996 86.5279C8.95996 86.4255 8.98556 86.3231 9.06236 86.2207C12.8512 81.0239 19.6096 78.9247 28.6464 80.1279C32.9472 80.7423 37.1456 81.8687 41.1648 83.4815C41.4208 83.5839 41.5488 83.8911 41.4208 84.1471C41.3184 84.4031 41.0112 84.5311 40.7552 84.4031C40.5248 84.3007 18.5088 74.9823 9.88156 86.7839C9.77916 86.9631 9.62556 87.0399 9.47196 87.0399Z" fill="black"/>
<path d="M45.5677 77.8241C45.4141 77.8241 45.2861 77.7729 45.1837 77.6449C45.1069 77.5681 38.7581 70.7073 25.3949 72.1921C25.1133 72.2177 24.8574 72.0129 24.8318 71.7313C24.8062 71.4497 25.011 71.1937 25.2926 71.1681C39.219 69.6321 45.6957 76.6721 45.9517 76.9793C46.1309 77.1841 46.1309 77.5169 45.9261 77.6961C45.8237 77.7729 45.6957 77.8241 45.5677 77.8241Z" fill="black"/>
<path d="M175.232 141.184C174.669 141.184 174.208 140.724 174.208 140.16C174.208 139.802 174.387 139.495 174.669 139.29C199.322 123.495 195.789 110.618 195.738 110.49C195.584 109.952 195.891 109.389 196.429 109.21C196.966 109.031 197.53 109.364 197.709 109.901C197.76 110.055 198.81 113.716 196.531 119.399C193.562 126.823 186.573 134.093 175.795 141.005C175.616 141.133 175.437 141.184 175.232 141.184Z" fill="white"/>
<path d="M240.64 80.6406C240.512 80.6406 240.358 80.5894 240.256 80.487C236.237 76.263 230.912 74.471 224.435 75.1622C221.44 75.495 218.522 76.2886 215.782 77.5174C215.526 77.671 215.219 77.5686 215.091 77.3382C214.938 77.0822 215.04 76.775 215.27 76.647C215.296 76.647 215.322 76.6214 215.347 76.6214C218.189 75.3414 221.21 74.4966 224.307 74.1638C231.04 73.4214 236.825 75.3926 241.024 79.7958C241.229 80.0006 241.203 80.3334 240.998 80.5126C240.87 80.5894 240.768 80.6406 240.64 80.6406Z" fill="black"/>
<path d="M203.008 75.0085C202.726 75.0085 202.496 74.7781 202.496 74.4965C202.496 74.3941 202.522 74.2917 202.599 74.2149C202.675 74.0869 204.749 71.1428 208.973 68.6852C212.864 66.4068 219.341 64.1797 228.224 66.3301C228.506 66.4069 228.659 66.6629 228.608 66.9445C228.531 67.2261 228.275 67.3797 227.994 67.3285C219.443 65.2549 213.248 67.4053 209.536 69.5557C205.517 71.9109 203.469 74.7781 203.443 74.8037C203.341 74.9317 203.187 75.0085 203.008 75.0085Z" fill="black"/>
</svg>
